<svg id="zalo" xmlns="http://www.w3.org/2000/svg" xmlns:xlink="http://www.w3.org/1999/xlink" width="31.238" height="31.238" viewBox="0 0 31.238 31.238">
  <defs>
    <clipPath id="clip-path">
      <path id="Path_456" data-name="Path 456" d="M.142,15.762A15.619,15.619,0,1,0,15.761.143,15.62,15.62,0,0,0,.142,15.762" transform="translate(-0.142 -0.143)" fill="none"/>
    </clipPath>
  </defs>
  <g id="Group_261" data-name="Group 261" clip-path="url(#clip-path)">
    <path id="Path_448" data-name="Path 448" d="M31.6,15.8A15.8,15.8,0,1,1,15.8,0,15.8,15.8,0,0,1,31.6,15.8" transform="translate(-0.128 -0.129)" fill="#357fbf"/>
    <path id="Path_449" data-name="Path 449" d="M32.668,14.5c0,8.007-8.806,14.715-17.827,14.715A14.346,14.346,0,0,1,0,14.5C0,6.491,7.313,0,16.334,0S32.668,6.491,32.668,14.5" transform="translate(-0.128 -0.129)" fill="#fff"/>
    <path id="Path_450" data-name="Path 450" d="M5.518,26.055c-.119-.052-.205-.112-.066-.231.086-.066.178-.126.271-.185a6.557,6.557,0,0,0,2.214-2.081,1.2,1.2,0,0,0-.185-1.752A12.531,12.531,0,0,1,3.932,10.5a12.712,12.712,0,0,1,3.2-6.537,14.229,14.229,0,0,1,3.51-2.822c.08-.046.192-.06.205-.178-.026-.067-.072-.047-.112-.047C8.506.911,6.278.865,4.058.925A4.022,4.022,0,0,0,.1,5C.112,11.89.1,18.784.1,25.685A3.959,3.959,0,0,0,3.866,29.7c1.8.072,3.609.013,5.42.006.133.006.265.014.4.014h9.545c2.38,0,4.759.013,7.139,0a3.994,3.994,0,0,0,4-3.986V21.825a.5.5,0,0,0-.027-.291c-.118.006-.165.106-.231.172a14.648,14.648,0,0,1-4.455,3.061,16.478,16.478,0,0,1-12.4.475,1.957,1.957,0,0,0-1.136-.052c-.556.139-1.1.3-1.652.469A9.966,9.966,0,0,1,5.518,26.055ZM10.31,14.918c.113-.145.173-.231.239-.317q1.3-1.646,2.6-3.3a4.4,4.4,0,0,0,.661-1.024.719.719,0,0,0-.463-1,1.8,1.8,0,0,0-.622-.073c-1.176-.006-2.36-.006-3.536,0a2.024,2.024,0,0,0-.49.06.7.7,0,0,0-.5.846.707.707,0,0,0,.516.509,1.738,1.738,0,0,0,.489.053c.714.006,1.435,0,2.148.006.08,0,.179-.053.238.066-.059.08-.118.159-.178.231-1.024,1.3-2.043,2.6-3.067,3.894a.912.912,0,0,0,.747,1.573c.3.02.614.006.925.006,1.071,0,2.135.006,3.206-.006a.739.739,0,0,0,.813-.879c-.047-.416-.331-.635-.86-.641C12.241,14.911,11.308,14.918,10.31,14.918Zm7.668-3.476a2.1,2.1,0,0,0-2.631-.239A2.757,2.757,0,0,0,14,14.078,2.584,2.584,0,0,0,15.79,16.5a2.024,2.024,0,0,0,2.016-.337c.159-.126.205-.1.317.039a.814.814,0,0,0,.926.258.774.774,0,0,0,.548-.747c.006-1.322.014-2.644,0-3.966a.814.814,0,0,0-1.018-.76A1.025,1.025,0,0,0,17.978,11.441Zm4.58,2.452a2.7,2.7,0,0,0,3.06,2.73,2.755,2.755,0,0,0,2.552-3.015,2.81,2.81,0,1,0-5.612.285m-.582-1.315c0-1.038.006-2.069,0-3.107a.83.83,0,1,0-1.659-.006c-.007.311,0,.614,0,.925v5.255a.864.864,0,0,0,.581.853.846.846,0,0,0,1.044-.6.761.761,0,0,0,.027-.245C21.983,14.627,21.977,13.6,21.977,12.578Z" transform="translate(-0.138 -0.216)" fill="#fbfcfc"/>
    <path id="Path_451" data-name="Path 451" d="M9.476,29.74c-1.8,0-3.813.031-5.617-.035A3.967,3.967,0,0,1,.092,25.692C.092,18.8.1,11.9.092,5A4.024,4.024,0,0,1,4.056.939C6.278.879,8.5.926,10.732.926c.04,0,.093-.02.112.046-.013.118-.132.132-.2.178A14.213,14.213,0,0,0,7.13,3.972a12.738,12.738,0,0,0-3.2,6.537,12.56,12.56,0,0,0,3.821,11.31,1.21,1.21,0,0,1,.185,1.752,6.543,6.543,0,0,1-2.214,2.082c-.092.052-.185.118-.277.178-.139.119-.053.179.066.231a.777.777,0,0,0,.1.165c.759.674,1.48,1.395,2.226,2.082.351.323.7.66,1.038,1,.139.126.567.194.6.432" transform="translate(-0.137 -0.217)" fill="#357fbf"/>
    <path id="Path_452" data-name="Path 452" d="M11.68,32.984a17.868,17.868,0,0,1-2.94-1.941A25.943,25.943,0,0,1,6.19,28.429a.837.837,0,0,1-.1-.165,10.069,10.069,0,0,0,4.951-.39c.548-.165,1.1-.331,1.652-.469a1.909,1.909,0,0,1,1.137.052,16.5,16.5,0,0,0,12.4-.476,14.614,14.614,0,0,0,4.456-3.054c.066-.066.112-.165.231-.172.06.092.026.192.026.291v3.867a4,4,0,0,1-3.966,4.026l-.054,2.034c-2.38.014-4.759,0-7.139,0H10.234a12.033,12.033,0,0,1,1.445-.988" transform="translate(-0.717 -2.424)" fill="#2e71aa"/>
    <path id="Path_453" data-name="Path 453" d="M11.162,15.806c1,0,1.937-.006,2.868,0,.522.006.807.225.86.641a.742.742,0,0,1-.813.879c-1.071.013-2.136.006-3.206.006-.311,0-.614.014-.925-.006A.97.97,0,0,1,9,16.83a.988.988,0,0,1,.2-1.078c1.018-1.3,2.043-2.6,3.067-3.893.06-.079.119-.159.178-.231-.066-.112-.158-.06-.238-.066-.714-.007-1.435,0-2.148-.007a2.375,2.375,0,0,1-.489-.052.693.693,0,0,1-.014-1.349,2.023,2.023,0,0,1,.49-.059c1.176-.007,2.36-.007,3.536,0a2.156,2.156,0,0,1,.622.072.721.721,0,0,1,.463,1A4.681,4.681,0,0,1,14,12.2q-1.3,1.656-2.6,3.292C11.333,15.575,11.267,15.66,11.162,15.806Z" transform="translate(-0.989 -1.104)" fill="#357fbf"/>
    <path id="Path_454" data-name="Path 454" d="M19.461,12.268a1.015,1.015,0,0,1,.594-.45.812.812,0,0,1,1.018.76c.02,1.323.013,2.644,0,3.966a.782.782,0,0,1-.549.747.8.8,0,0,1-.925-.257c-.112-.139-.158-.165-.317-.04a2.025,2.025,0,0,1-2.016.337,2.605,2.605,0,0,1-1.791-2.419,2.741,2.741,0,0,1,1.348-2.876,2.1,2.1,0,0,1,2.638.232M17.12,14.68a1.446,1.446,0,0,0,.278.8,1.092,1.092,0,0,0,1.52.219,1.161,1.161,0,0,0,.218-.219,1.646,1.646,0,0,0,0-1.83.991.991,0,0,0-.787-.416c-.726-.046-1.236.515-1.23,1.447m6.921.04a2.813,2.813,0,1,1,5.618-.285,2.755,2.755,0,0,1-2.551,3.015A2.7,2.7,0,0,1,24.041,14.72Zm1.659-.159a1.466,1.466,0,0,0,.285.926,1.079,1.079,0,0,0,1.52.2A1.28,1.28,0,0,0,27.7,15.5a1.644,1.644,0,0,0,.006-1.85,1.012,1.012,0,0,0-.786-.416A1.179,1.179,0,0,0,25.7,14.561M23.46,13.4c0,1.024.006,2.049,0,3.073a.859.859,0,0,1-.833.873,1.026,1.026,0,0,1-.245-.026.857.857,0,0,1-.581-.853V11.216c0-.311-.007-.614,0-.925a.83.83,0,1,1,1.659.014c.006,1.031,0,2.069,0,3.1" transform="translate(-1.62 -1.042)" fill="#357fbf"/>
    <path id="Path_455" data-name="Path 455" d="M17.3,15.083c-.006-.932.5-1.494,1.223-1.454a1.018,1.018,0,0,1,.786.423,1.648,1.648,0,0,1,0,1.831,1.09,1.09,0,0,1-1.52.218,1.108,1.108,0,0,1-.219-.218,1.489,1.489,0,0,1-.271-.8m8.58-.119a1.182,1.182,0,0,1,1.216-1.329,1.015,1.015,0,0,1,.787.416,1.646,1.646,0,0,1-.006,1.851,1.091,1.091,0,0,1-1.528.178.825.825,0,0,1-.184-.192,1.5,1.5,0,0,1-.285-.925" transform="translate(-1.799 -1.445)" fill="#fbfcfc"/>
  </g>
</svg>
